<?xml version="1.0" standalone="no"?>
<!DOCTYPE svg PUBLIC "-//W3C//DTD SVG 20010904//EN"
 "http://www.w3.org/TR/2001/REC-SVG-20010904/DTD/svg10.dtd">
<svg version="1.0" xmlns="http://www.w3.org/2000/svg"
 width="531.000000pt" height="33.000000pt" viewBox="0 0 531.000000 33.000000"
 preserveAspectRatio="xMidYMid meet">

<g transform="translate(0.000000,33.000000) scale(0.100000,-0.100000)"
fill="#000000" stroke="none">
<path d="M166 293 c-10 -66 -5 -80 9 -23 8 30 14 56 15 58 0 1 -4 2 -9 2 -4 0
-11 -17 -15 -37z"/>
<path d="M203 280 c2 -8 0 -25 -4 -37 -11 -28 -3 -30 11 -3 8 15 8 25 0 38 -8
11 -10 12 -7 2z"/>
<path d="M1386 253 c-3 -21 -8 -49 -11 -63 l-6 -25 11 24 c16 37 29 101 20
101 -4 0 -10 -17 -14 -37z"/>
<path d="M81 252 c-5 -10 -15 -65 -20 -121 -6 -57 -14 -108 -17 -114 -3 -7 1
-4 9 6 15 18 21 49 33 170 4 45 11 67 19 67 7 0 16 -5 18 -10 3 -6 4 -5 3 2
-4 21 -34 21 -45 0z"/>
<path d="M352 238 c-7 -7 -12 -18 -12 -25 0 -8 -7 -16 -16 -20 -10 -4 -12 -8
-5 -12 8 -5 8 -24 0 -67 -13 -68 -18 -81 -29 -64 -5 8 -10 8 -14 2 -3 -5 1
-12 9 -16 22 -8 43 30 51 92 5 38 11 52 23 52 13 0 13 2 2 9 -8 6 -11 16 -6
31 5 17 9 19 16 9 4 -7 11 -10 14 -7 8 8 -2 28 -14 28 -4 0 -12 -5 -19 -12z"/>
<path d="M651 230 c14 -31 19 -36 19 -24 0 6 -7 19 -16 30 -14 18 -14 18 -3
-6z"/>
<path d="M795 240 c3 -5 3 -20 0 -33 -5 -18 -12 -23 -24 -20 -12 3 -26 -5 -40
-23 -24 -31 -27 -57 -8 -73 11 -8 13 -5 9 18 -5 34 13 71 33 71 17 0 20 -46 5
-70 -6 -9 -5 -17 3 -22 8 -5 15 11 23 50 7 31 15 69 19 85 6 21 4 27 -10 27
-9 0 -14 -4 -10 -10z"/>
<path d="M1423 217 c-1 -30 -1 -31 8 -8 5 14 6 28 2 32 -4 4 -9 -6 -10 -24z"/>
<path d="M1642 238 c-7 -7 -12 -18 -12 -25 0 -8 -7 -16 -16 -20 -10 -4 -12 -8
-5 -12 8 -5 8 -24 0 -67 -13 -68 -18 -81 -29 -64 -5 8 -10 8 -14 2 -3 -5 1
-12 9 -16 22 -8 43 30 51 92 5 38 11 52 23 52 13 0 13 2 2 9 -8 6 -11 16 -6
31 5 17 9 19 16 9 4 -7 11 -10 14 -7 8 8 -2 28 -14 28 -4 0 -12 -5 -19 -12z"/>
<path d="M1931 230 c14 -31 19 -36 19 -24 0 6 -7 19 -16 30 -14 18 -14 18 -3
-6z"/>
<path d="M2382 238 c-7 -7 -12 -18 -12 -25 0 -8 -7 -16 -16 -20 -10 -4 -12 -8
-5 -12 8 -5 8 -24 0 -67 -13 -68 -18 -81 -29 -64 -5 8 -10 8 -14 2 -3 -5 1
-12 9 -16 22 -8 43 30 51 92 5 38 11 52 23 52 13 0 13 2 2 9 -8 6 -11 16 -6
31 5 17 9 19 16 9 4 -7 11 -10 14 -7 8 8 -2 28 -14 28 -4 0 -12 -5 -19 -12z"/>
<path d="M2864 242 c3 -5 -4 -42 -14 -83 -23 -87 -22 -79 -12 -79 7 0 37 87
34 101 -1 4 3 21 8 38 7 25 6 31 -6 31 -8 0 -13 -4 -10 -8z"/>
<path d="M2981 230 c14 -31 19 -36 19 -24 0 6 -7 19 -16 30 -14 18 -14 18 -3
-6z"/>
<path d="M3432 238 c-7 -7 -12 -18 -12 -25 0 -8 -7 -16 -16 -20 -10 -4 -12 -8
-5 -12 8 -5 8 -24 0 -67 -13 -68 -18 -81 -29 -64 -5 8 -10 8 -14 2 -3 -5 1
-12 9 -16 22 -8 43 30 51 92 5 38 11 52 23 52 13 0 13 2 2 9 -8 6 -11 16 -6
31 5 17 9 19 16 9 4 -7 11 -10 14 -7 8 8 -2 28 -14 28 -4 0 -12 -5 -19 -12z"/>
<path d="M4034 242 c3 -5 -4 -42 -14 -83 -23 -87 -22 -79 -12 -79 7 0 37 87
34 101 -1 4 3 21 8 38 7 25 6 31 -6 31 -8 0 -13 -4 -10 -8z"/>
<path d="M4151 230 c14 -31 19 -36 19 -24 0 6 -7 19 -16 30 -14 18 -14 18 -3
-6z"/>
<path d="M4932 238 c-7 -7 -12 -18 -12 -25 0 -8 -7 -16 -16 -20 -10 -4 -12 -8
-5 -12 8 -5 8 -24 0 -67 -13 -68 -18 -81 -29 -64 -5 8 -10 8 -14 2 -3 -5 1
-12 9 -16 22 -8 43 30 51 92 5 38 11 52 23 52 13 0 13 2 2 9 -8 6 -11 16 -6
31 5 17 9 19 16 9 4 -7 11 -10 14 -7 8 8 -2 28 -14 28 -4 0 -12 -5 -19 -12z"/>
<path d="M5087 242 c9 -6 8 -22 -4 -70 -12 -50 -13 -65 -3 -77 16 -20 33 -19
52 3 33 37 23 103 -13 89 -10 -4 -9 -6 4 -6 20 -1 22 -28 5 -66 -11 -25 -32
-33 -42 -17 -3 5 1 33 9 63 19 71 19 89 -2 89 -12 0 -14 -3 -6 -8z"/>
<path d="M5191 230 c14 -31 19 -36 19 -24 0 6 -7 19 -16 30 -14 18 -14 18 -3
-6z"/>
<path d="M5271 230 c14 -31 19 -36 19 -24 0 6 -7 19 -16 30 -14 18 -14 18 -3
-6z"/>
<path d="M2238 230 c27 -11 30 -54 5 -84 -13 -15 -10 -14 10 3 15 14 27 32 27
42 0 23 -27 49 -48 48 -12 0 -11 -3 6 -9z"/>
<path d="M3288 230 c27 -11 30 -54 5 -84 -13 -15 -10 -14 10 3 15 14 27 32 27
42 0 23 -27 49 -48 48 -12 0 -11 -3 6 -9z"/>
<path d="M3938 230 c27 -11 30 -54 5 -84 -13 -15 -10 -14 10 3 15 14 27 32 27
42 0 23 -27 49 -48 48 -12 0 -11 -3 6 -9z"/>
<path d="M436 188 c-7 -29 -7 -78 2 -100 4 -10 7 14 7 52 0 39 -1 70 -1 70 -1
0 -4 -10 -8 -22z"/>
<path d="M1496 188 c-7 -29 -7 -78 2 -100 4 -10 7 14 7 52 0 39 -1 70 -1 70
-1 0 -4 -10 -8 -22z"/>
<path d="M1726 188 c-7 -29 -7 -78 2 -100 4 -10 7 14 7 52 0 39 -1 70 -1 70
-1 0 -4 -10 -8 -22z"/>
<path d="M2082 178 c-2 -35 -4 -37 -39 -41 l-38 -4 37 -1 c34 -2 37 -5 41 -34
l4 -33 1 32 c2 29 5 32 40 36 l37 4 -37 1 c-35 2 -37 4 -41 40 l-4 37 -1 -37z"/>
<path d="M2190 196 c0 -9 5 -16 10 -16 6 0 10 4 10 9 0 6 -4 13 -10 16 -5 3
-10 -1 -10 -9z"/>
<path d="M2456 188 c-7 -29 -7 -78 2 -100 4 -10 7 14 7 52 0 39 -1 70 -1 70
-1 0 -4 -10 -8 -22z"/>
<path d="M2722 178 c-2 -35 -4 -37 -39 -41 l-38 -4 37 -1 c34 -2 37 -5 41 -34
l4 -33 1 32 c2 29 5 32 40 36 l37 4 -37 1 c-35 2 -37 4 -41 40 l-4 37 -1 -37z"/>
<path d="M3132 178 c-2 -35 -4 -37 -39 -41 l-38 -4 37 -1 c34 -2 37 -5 41 -34
l4 -33 1 32 c2 29 5 32 40 36 l37 4 -37 1 c-35 2 -37 4 -41 40 l-4 37 -1 -37z"/>
<path d="M3240 196 c0 -9 5 -16 10 -16 6 0 10 4 10 9 0 6 -4 13 -10 16 -5 3
-10 -1 -10 -9z"/>
<path d="M3506 188 c-7 -29 -7 -78 2 -100 4 -10 7 14 7 52 0 39 -1 70 -1 70
-1 0 -4 -10 -8 -22z"/>
<path d="M3782 178 c-2 -35 -4 -37 -39 -41 l-38 -4 37 -1 c34 -2 37 -5 41 -34
l4 -33 1 32 c2 29 5 32 40 36 l37 4 -37 1 c-35 2 -37 4 -41 40 l-4 37 -1 -37z"/>
<path d="M3890 196 c0 -9 5 -16 10 -16 6 0 10 4 10 9 0 6 -4 13 -10 16 -5 3
-10 -1 -10 -9z"/>
<path d="M4292 178 c-2 -35 -4 -37 -39 -41 l-38 -4 37 -1 c34 -2 37 -5 41 -34
l4 -33 1 32 c2 29 5 32 40 36 l37 4 -37 1 c-35 2 -37 4 -41 40 l-4 37 -1 -37z"/>
<path d="M4742 178 c-2 -35 -4 -37 -39 -41 l-38 -4 37 -1 c34 -2 37 -5 41 -34
l4 -33 1 32 c2 29 5 32 40 36 l37 4 -37 1 c-35 2 -37 4 -41 40 l-4 37 -1 -37z"/>
<path d="M5006 188 c-7 -29 -7 -78 2 -100 4 -10 7 14 7 52 0 39 -1 70 -1 70
-1 0 -4 -10 -8 -22z"/>
<path d="M538 183 c16 -6 15 -41 -1 -73 -12 -23 -12 -26 5 -26 13 0 18 8 18
31 0 17 8 42 17 55 16 24 16 24 0 11 -11 -9 -17 -10 -17 -2 0 6 -8 11 -17 10
-11 0 -13 -3 -5 -6z"/>
<path d="M596 175 c-3 -8 -1 -15 4 -15 6 0 10 7 10 15 0 8 -2 15 -4 15 -2 0
-6 -7 -10 -15z"/>
<path d="M672 142 c-1 -29 -9 -66 -17 -82 -9 -17 -13 -30 -11 -30 17 0 37 66
33 113 l-3 52 -2 -53z"/>
<path d="M868 183 c16 -6 15 -41 -1 -73 -12 -23 -12 -26 5 -26 13 0 18 8 18
31 0 17 8 42 17 55 16 24 16 24 0 11 -11 -9 -17 -10 -17 -2 0 6 -8 11 -17 10
-11 0 -13 -3 -5 -6z"/>
<path d="M926 175 c-3 -8 -1 -15 4 -15 6 0 10 7 10 15 0 8 -2 15 -4 15 -2 0
-6 -7 -10 -15z"/>
<path d="M1052 178 c-7 -7 -12 -16 -12 -22 0 -5 6 -1 14 10 13 17 18 18 48 6
18 -8 41 -16 51 -19 18 -6 47 12 47 29 0 5 -7 2 -16 -6 -19 -19 -22 -19 -54
-1 -31 18 -62 19 -78 3z"/>
<path d="M1811 164 c-24 -31 -27 -57 -8 -73 11 -8 13 -5 9 18 -5 34 13 71 33
71 17 0 20 -42 5 -70 -7 -13 -6 -19 4 -23 19 -7 32 83 14 95 -22 13 -36 9 -57
-18z"/>
<path d="M1952 142 c-1 -29 -9 -66 -17 -82 -9 -17 -13 -30 -11 -30 17 0 37 66
33 113 l-3 52 -2 -53z"/>
<path d="M2541 164 c-24 -31 -27 -57 -8 -73 11 -8 13 -5 9 18 -5 34 13 71 33
71 17 0 20 -42 5 -70 -7 -13 -6 -19 4 -23 19 -7 32 83 14 95 -22 13 -36 9 -57
-18z"/>
<path d="M2906 180 c9 -8 9 -22 2 -47 -11 -41 3 -66 25 -44 10 10 8 11 -7 5
-16 -6 -17 -4 -10 17 13 38 10 72 -6 77 -11 3 -12 2 -4 -8z"/>
<path d="M3002 142 c-1 -29 -9 -66 -17 -82 -9 -17 -13 -30 -11 -30 17 0 37 66
33 113 l-3 52 -2 -53z"/>
<path d="M3591 164 c-24 -31 -27 -57 -8 -73 11 -8 13 -5 9 18 -5 34 13 71 33
71 17 0 20 -42 5 -70 -7 -13 -6 -19 4 -23 19 -7 32 83 14 95 -22 13 -36 9 -57
-18z"/>
<path d="M4076 180 c9 -8 9 -22 2 -47 -11 -41 3 -66 25 -44 10 10 8 11 -7 5
-16 -6 -17 -4 -10 17 13 38 10 72 -6 77 -11 3 -12 2 -4 -8z"/>
<path d="M4172 142 c-1 -29 -9 -66 -17 -82 -9 -17 -13 -30 -11 -30 17 0 37 66
33 113 l-3 52 -2 -53z"/>
<path d="M5212 142 c-1 -29 -9 -66 -17 -82 -9 -17 -13 -30 -11 -30 17 0 37 66
33 113 l-3 52 -2 -53z"/>
<path d="M5292 142 c-1 -29 -9 -66 -17 -82 -9 -17 -13 -30 -11 -30 17 0 37 66
33 113 l-3 52 -2 -53z"/>
<path d="M1050 121 c-16 -30 -12 -36 8 -11 l19 23 42 -24 c43 -24 69 -20 80
12 3 9 -1 8 -13 -4 -22 -21 -24 -21 -61 3 -38 25 -61 25 -75 1z"/>
<path d="M1383 133 c15 -2 39 -2 55 0 15 2 2 4 -28 4 -30 0 -43 -2 -27 -4z"/>
<path d="M501 94 c0 -11 3 -14 6 -6 3 7 2 16 -1 19 -3 4 -6 -2 -5 -13z"/>
<path d="M831 94 c0 -11 3 -14 6 -6 3 7 2 16 -1 19 -3 4 -6 -2 -5 -13z"/>
<path d="M1421 92 c11 -17 10 -24 -2 -39 -13 -17 -13 -17 4 -4 20 16 19 52 -1
59 -11 3 -11 0 -1 -16z"/>
<path d="M1300 90 c0 -5 5 -10 10 -10 6 0 10 5 10 10 0 6 -4 10 -10 10 -5 0
-10 -4 -10 -10z"/>
<path d="M1381 84 c0 -11 3 -14 6 -6 3 7 2 16 -1 19 -3 4 -6 -2 -5 -13z"/>
<path d="M2193 88 c-2 -5 14 -8 36 -8 22 0 42 3 44 8 3 4 -13 7 -35 7 -22 0
-42 -3 -45 -7z"/>
<path d="M3243 88 c-2 -5 14 -8 36 -8 22 0 42 3 44 8 3 4 -13 7 -35 7 -22 0
-42 -3 -45 -7z"/>
<path d="M3893 88 c-2 -5 14 -8 36 -8 22 0 42 3 44 8 3 4 -13 7 -35 7 -22 0
-42 -3 -45 -7z"/>
<path d="M4410 90 c0 -5 5 -10 10 -10 6 0 10 5 10 10 0 6 -4 10 -10 10 -5 0
-10 -4 -10 -10z"/>
<path d="M4480 90 c0 -5 5 -10 10 -10 6 0 10 5 10 10 0 6 -4 10 -10 10 -5 0
-10 -4 -10 -10z"/>
<path d="M4550 90 c0 -5 5 -10 10 -10 6 0 10 5 10 10 0 6 -4 10 -10 10 -5 0
-10 -4 -10 -10z"/>
<path d="M4620 90 c0 -5 5 -10 10 -10 6 0 10 5 10 10 0 6 -4 10 -10 10 -5 0
-10 -4 -10 -10z"/>
<path d="M122 68 c-7 -7 -11 -23 -11 -37 l2 -26 4 25 c3 14 10 31 15 38 13 15
6 16 -10 0z"/>
<path d="M156 44 c-4 -20 -5 -38 -3 -40 3 -3 8 11 11 32 4 20 5 38 3 40 -3 3
-8 -11 -11 -32z"/>
<path d="M5 31 c-3 -5 -1 -12 5 -16 5 -3 10 1 10 9 0 18 -6 21 -15 7z"/>
<path d="M1393 3 c9 -2 25 -2 35 0 9 3 1 5 -18 5 -19 0 -27 -2 -17 -5z"/>
</g>
</svg>
