<?xml version="1.0" standalone="no"?>
<!DOCTYPE svg PUBLIC "-//W3C//DTD SVG 20010904//EN"
 "http://www.w3.org/TR/2001/REC-SVG-20010904/DTD/svg10.dtd">
<svg version="1.0" xmlns="http://www.w3.org/2000/svg"
 width="400.000000pt" height="330.000000pt" viewBox="0 0 400.000000 330.000000"
 preserveAspectRatio="xMidYMid meet">

<g transform="translate(0.000000,330.000000) scale(0.100000,-0.100000)"
fill="#000000" stroke="none">
<path d="M3219 3195 c0 -6 -1 -44 -1 -85 0 -56 3 -76 13 -78 11 -2 13 13 11
75 -2 43 -8 82 -13 88 -6 5 -9 5 -10 0z"/>
<path d="M3671 3195 c-1 -5 -2 -41 -1 -79 1 -48 -3 -72 -12 -77 -9 -6 -4 -9
16 -9 22 0 26 3 18 13 -6 7 -13 46 -15 87 -1 41 -4 71 -6 65z"/>
<path d="M2251 3163 c0 -27 1 -27 9 -5 6 15 18 22 35 22 24 0 25 -2 25 -65 0
-59 -2 -67 -22 -75 -18 -7 -12 -9 27 -8 28 0 42 2 33 5 -15 4 -18 16 -18 74 0
66 1 69 24 69 13 0 27 -6 29 -12 3 -8 6 -6 6 5 1 15 -9 17 -74 17 l-75 0 1
-27z"/>
<path d="M3085 3180 c-3 -5 1 -10 10 -10 9 0 13 5 10 10 -3 6 -8 10 -10 10 -2
0 -7 -4 -10 -10z"/>
<path d="M3368 3119 c3 -52 0 -74 -10 -80 -8 -6 -1 -8 22 -8 19 0 29 3 23 6
-7 2 -13 20 -13 39 0 33 2 35 28 32 22 -2 28 -9 32 -38 5 -36 32 -52 52 -32 7
7 4 10 -8 9 -13 -2 -20 6 -22 23 -2 14 -8 30 -13 36 -6 8 -4 14 6 18 30 11 11
66 -24 66 -12 0 -11 -3 3 -13 29 -21 12 -57 -26 -57 -29 0 -30 2 -26 35 3 27
0 35 -12 35 -12 0 -14 -12 -12 -71z"/>
<path d="M2408 3128 c16 -16 15 -85 0 -91 -7 -3 1 -6 17 -6 20 0 26 2 17 8 -8
5 -13 23 -12 42 3 53 1 59 -17 59 -13 0 -14 -3 -5 -12z"/>
<path d="M2460 3124 c0 -8 5 -12 10 -9 6 4 8 11 5 16 -9 14 -15 11 -15 -7z"/>
<path d="M2538 3130 c17 -7 22 -17 22 -45 0 -38 -22 -57 -43 -36 -9 10 -8 16
7 27 11 8 15 14 9 14 -7 0 -19 -7 -28 -16 -12 -12 -13 -19 -4 -30 15 -18 91
-13 97 6 3 13 2 13 -7 0 -8 -12 -11 -7 -11 22 0 39 -21 68 -48 67 -12 0 -11
-3 6 -9z"/>
<path d="M2628 3074 c3 -49 1 -69 -9 -75 -10 -6 -5 -9 16 -9 18 0 25 3 18 8
-8 5 -12 30 -10 72 1 37 -2 65 -8 67 -7 2 -10 -19 -7 -63z"/>
<path d="M2678 3130 c17 -7 22 -17 22 -45 0 -28 -5 -38 -22 -45 -13 -5 -17 -9
-10 -9 7 -1 22 4 33 9 38 21 15 101 -29 99 -12 0 -11 -3 6 -9z"/>
<path d="M2768 3129 c-25 -14 -24 -75 1 -89 11 -5 26 -10 33 -9 7 0 3 4 -10
10 -19 7 -23 15 -20 46 3 44 35 60 45 24 3 -12 9 -21 14 -21 11 0 -1 33 -15
42 -15 10 -28 9 -48 -3z"/>
<path d="M2978 3128 c-28 -22 -31 -55 -9 -77 27 -27 56 -27 75 1 20 28 20 39
1 64 -15 18 -15 18 -9 -8 8 -37 -4 -68 -26 -68 -44 0 -49 73 -7 90 14 6 17 9
6 9 -8 1 -22 -5 -31 -11z"/>
<path d="M3085 3085 c0 -43 3 -55 15 -55 13 0 15 10 10 52 -7 70 -25 72 -25 3z"/>
<path d="M3537 3098 c7 -66 8 -66 60 -66 26 0 42 3 36 5 -8 3 -13 24 -13 54 0
32 -4 49 -12 49 -9 0 -13 -16 -13 -47 0 -41 -3 -48 -20 -48 -17 0 -20 8 -23
48 -2 26 -7 47 -12 47 -4 0 -6 -19 -3 -42z"/>
<path d="M3736 3127 c-38 -28 -13 -98 33 -96 11 0 9 3 -5 9 -26 10 -33 27 -24
60 8 33 37 38 49 8 6 -14 10 -17 10 -7 1 17 -18 39 -34 39 -6 0 -19 -6 -29
-13z"/>
<path d="M2855 3119 c-4 -6 -5 -12 -2 -15 2 -3 7 2 10 11 7 17 1 20 -8 4z"/>
<path d="M2882 3082 l-33 -47 37 -3 c35 -3 54 8 54 33 -1 6 -5 2 -11 -7 -5
-10 -21 -18 -35 -18 l-26 0 31 39 c32 40 37 51 24 51 -5 0 -23 -22 -41 -48z"/>
<path d="M3152 3118 c-28 -28 -2 -89 36 -87 12 0 10 3 -7 10 -20 8 -23 15 -19
49 2 22 3 40 3 40 -1 0 -6 -5 -13 -12z"/>
<path d="M2500 3110 c0 -5 5 -10 10 -10 6 0 10 5 10 10 0 6 -4 10 -10 10 -5 0
-10 -4 -10 -10z"/>
<path d="M2037 2895 c9 -19 20 -35 25 -35 4 0 -2 16 -13 35 -12 19 -23 35 -25
35 -2 0 4 -16 13 -35z"/>
<path d="M2235 2890 c0 -22 3 -40 8 -40 4 0 7 18 7 40 0 22 -3 40 -7 40 -5 0
-8 -18 -8 -40z"/>
<path d="M1131 2874 c0 -11 3 -14 6 -6 3 7 2 16 -1 19 -3 4 -6 -2 -5 -13z"/>
<path d="M1158 2857 c-3 -19 -2 -25 4 -19 6 6 8 18 6 28 -3 14 -5 12 -10 -9z"/>
<path d="M1065 2836 c-8 -19 -27 -95 -41 -168 -14 -73 -31 -142 -36 -153 -10
-19 -9 -19 7 -4 10 10 27 69 45 160 40 198 38 189 57 182 11 -4 14 -3 9 5 -13
21 -27 13 -41 -22z"/>
<path d="M2350 2860 c-10 -6 -11 -10 -2 -10 8 0 12 -16 12 -44 0 -26 -5 -46
-12 -49 -7 -3 1 -6 17 -6 17 0 25 3 18 7 -6 4 -13 31 -15 59 -2 44 -5 51 -18
43z"/>
<path d="M2048 2748 c21 -29 42 -59 46 -66 5 -8 -8 -31 -33 -61 -23 -27 -41
-52 -41 -55 0 -3 45 -6 99 -6 81 0 100 3 105 16 9 24 8 24 -20 14 -14 -6 -57
-10 -96 -10 l-70 0 41 49 c23 27 41 52 41 55 0 4 -16 28 -36 54 l-36 47 71 3
c40 2 80 -2 92 -9 17 -9 20 -8 17 3 -3 9 -33 14 -112 16 l-107 3 39 -53z"/>
<path d="M1276 2751 c-10 -16 -34 -141 -26 -136 4 3 14 34 21 69 7 36 16 63
21 60 4 -3 8 0 8 5 0 13 -17 14 -24 2z"/>
<path d="M1632 2704 c-6 -32 -10 -59 -8 -61 6 -6 28 95 24 108 -2 6 -9 -15
-16 -47z"/>
<path d="M2581 2738 c-5 -13 -11 -43 -14 -68 -5 -38 -4 -35 11 18 9 35 20 60
25 56 4 -4 7 -2 7 4 0 21 -20 13 -29 -10z"/>
<path d="M2964 2746 c-12 -32 -30 -136 -22 -128 5 5 14 36 20 69 9 48 14 60
26 55 10 -3 13 -1 8 6 -10 16 -25 15 -32 -2z"/>
<path d="M3466 2744 c-3 -8 -2 -13 2 -10 5 3 18 -15 31 -40 l22 -46 -51 4
c-27 1 -50 0 -50 -4 0 -5 27 -8 60 -8 33 0 60 2 60 5 0 11 -55 115 -61 115 -4
0 -10 -7 -13 -16z"/>
<path d="M2479 2723 c-5 -15 -9 -36 -7 -47 2 -11 8 1 14 27 12 52 9 61 -7 20z"/>
<path d="M3282 2720 c5 -17 8 -45 5 -63 -5 -28 -5 -29 5 -10 11 23 3 89 -12
98 -5 3 -4 -8 2 -25z"/>
<path d="M1336 2725 c-3 -9 -5 -31 -5 -48 1 -27 3 -24 9 13 8 48 6 61 -4 35z"/>
<path d="M3366 2725 c-3 -9 -5 -31 -5 -48 1 -27 3 -24 9 13 8 48 6 61 -4 35z"/>
<path d="M1510 2678 c-3 -31 -1 -53 3 -49 5 5 7 30 5 57 l-3 49 -5 -57z"/>
<path d="M3680 2711 c0 -11 4 -22 9 -25 4 -3 6 6 3 19 -5 30 -12 33 -12 6z"/>
<path d="M1816 2711 c-5 -7 -1 -9 9 -5 8 4 29 1 46 -6 18 -8 34 -9 39 -4 5 5
0 10 -13 11 -12 1 -34 4 -48 8 -16 4 -29 2 -33 -4z"/>
<path d="M1418 2680 c-3 -17 -1 -33 4 -36 4 -3 8 4 8 15 0 10 3 26 6 35 3 9 2
16 -4 16 -5 0 -12 -14 -14 -30z"/>
<path d="M1592 2698 c-7 -7 -11 -23 -11 -37 l2 -26 4 25 c3 14 10 31 15 38 13
15 6 16 -10 0z"/>
<path d="M1698 2679 c-3 -16 -1 -32 3 -34 4 -3 9 9 11 26 3 16 1 32 -3 34 -4
3 -9 -9 -11 -26z"/>
<path d="M3592 2673 c-3 -44 3 -42 11 5 4 17 3 32 -1 32 -4 0 -9 -17 -10 -37z"/>
<path d="M2773 2683 c15 -2 39 -2 55 0 15 2 2 4 -28 4 -30 0 -43 -2 -27 -4z"/>
<path d="M3203 2655 c0 -22 2 -30 4 -17 2 12 2 30 0 40 -3 9 -5 -1 -4 -23z"/>
<path d="M1816 2671 c-5 -7 -1 -9 9 -5 8 4 29 1 46 -6 18 -8 34 -9 39 -4 5 5
0 10 -13 11 -12 1 -34 4 -48 8 -16 4 -29 2 -33 -4z"/>
<path d="M3673 2633 c-10 -34 -10 -36 3 -19 12 17 20 56 11 56 -1 0 -7 -17
-14 -37z"/>
<path d="M1665 2650 c-3 -5 -1 -10 4 -10 6 0 11 5 11 10 0 6 -2 10 -4 10 -3 0
-8 -4 -11 -10z"/>
<path d="M2623 2645 c-3 -9 -3 -18 -1 -21 3 -3 8 4 11 16 6 23 -1 27 -10 5z"/>
<path d="M2657 2641 c-4 -17 -3 -21 5 -13 5 5 8 16 6 23 -3 8 -7 3 -11 -10z"/>
<path d="M3006 2645 c-9 -26 -7 -32 5 -12 6 10 9 21 6 23 -2 3 -7 -2 -11 -11z"/>
<path d="M3042 2640 c0 -14 2 -19 5 -12 2 6 2 18 0 25 -3 6 -5 1 -5 -13z"/>
<path d="M3730 2640 c0 -11 2 -20 4 -20 2 0 6 9 9 20 3 11 1 20 -4 20 -5 0 -9
-9 -9 -20z"/>
<path d="M3098 2643 c12 -2 32 -2 45 0 12 2 2 4 -23 4 -25 0 -35 -2 -22 -4z"/>
<path d="M1340 2631 c0 -6 4 -13 10 -16 6 -3 7 1 4 9 -7 18 -14 21 -14 7z"/>
<path d="M2372 2621 c11 -17 10 -25 -1 -43 -14 -23 -14 -23 8 -4 26 24 27 42
1 56 -19 10 -20 10 -8 -9z"/>
<path d="M3370 2631 c0 -6 4 -13 10 -16 6 -3 7 1 4 9 -7 18 -14 21 -14 7z"/>
<path d="M2330 2610 c0 -5 5 -10 11 -10 5 0 7 5 4 10 -3 6 -8 10 -11 10 -2 0
-4 -4 -4 -10z"/>
<path d="M2335 2530 c-4 -6 6 -10 24 -10 16 0 33 5 36 10 4 6 -6 10 -24 10
-16 0 -33 -4 -36 -10z"/>
<path d="M1053 2515 c-3 -9 -3 -18 -1 -21 3 -3 8 4 11 16 6 23 -1 27 -10 5z"/>
<path d="M1086 2515 c-9 -26 -7 -32 5 -12 6 10 9 21 6 23 -2 3 -7 -2 -11 -11z"/>
<path d="M2197 2503 c-9 -9 -9 -41 1 -46 4 -3 7 8 7 24 0 16 0 29 -1 29 0 0
-4 -3 -7 -7z"/>
<path d="M2242 2480 c0 -14 2 -19 5 -12 2 6 2 18 0 25 -3 6 -5 1 -5 -13z"/>
<path d="M2021 2474 c0 -11 3 -14 6 -6 3 7 2 16 -1 19 -3 4 -6 -2 -5 -13z"/>
<path d="M2056 2475 c-3 -9 -6 -22 -5 -28 0 -7 5 -1 10 12 5 13 8 26 5 28 -2
2 -6 -3 -10 -12z"/>
<path d="M2118 2483 c12 -2 30 -2 40 0 9 3 -1 5 -23 4 -22 0 -30 -2 -17 -4z"/>
<path d="M1118 2400 c-193 -35 -397 -168 -502 -327 l-26 -39 2 -690 3 -689
1497 -3 1498 -2 2 381 c2 209 1 382 -2 384 -3 1 -135 -26 -295 -61 -282 -62
-291 -63 -339 -49 -26 7 -55 11 -64 8 -11 -5 -13 -3 -7 7 6 10 2 11 -19 6 -20
-5 -26 -3 -21 5 5 8 1 9 -15 4 -16 -5 -20 -4 -15 5 5 9 1 10 -15 5 -16 -5 -20
-4 -15 5 5 9 1 10 -16 5 -14 -4 -20 -4 -16 1 5 5 -14 16 -42 24 -41 12 -105
58 -321 229 -266 211 -271 216 -412 384 -79 93 -174 197 -213 229 -84 71 -200
131 -310 159 -90 23 -264 33 -337 19z m267 -25 c88 -16 202 -55 240 -82 19
-14 18 -15 -15 -9 -19 3 -64 7 -100 10 -38 3 -19 -2 48 -12 l112 -16 0 -798 0
-798 -330 0 -330 0 0 841 0 842 38 -6 c20 -3 66 -8 102 -11 l65 -5 -77 12
c-42 7 -80 15 -83 19 -4 3 15 9 42 13 26 4 53 8 58 10 26 9 151 3 230 -10z
m-385 -870 l0 -835 -200 0 -200 0 0 675 0 675 38 34 c96 88 103 95 52 55 -51
-41 -53 -42 -32 -13 45 65 208 199 269 221 16 6 16 4 -2 -17 -14 -17 -9 -15
20 8 22 18 43 32 47 32 5 0 8 -376 8 -835z m915 515 c-22 25 -76 83 -120 129
-44 46 -66 74 -49 63 46 -31 237 -242 219 -242 -4 0 23 -33 59 -72 l66 -73 0
-577 0 -578 -205 0 -205 0 1 793 0 792 137 -140 c75 -77 119 -120 97 -95z
m493 -487 c45 -35 118 -84 162 -110 l79 -48 1 -352 0 -353 -275 0 -275 0 0
571 0 572 113 -109 c61 -60 149 -137 195 -171z m47 13 c114 -90 133 -108 90
-81 -63 38 -213 155 -275 215 l-65 61 75 -57 c41 -32 120 -94 175 -138z m1018
-182 c-82 -37 -209 -65 -313 -70 l-95 -4 210 49 c238 55 272 60 198 25z m107
-339 l0 -355 -290 0 -290 0 0 301 0 302 52 -6 c112 -14 328 27 458 87 30 14
58 25 63 25 4 1 7 -159 7 -354z m-674 260 l84 -18 0 -299 0 -298 -165 0 -165
0 0 349 0 348 81 -32 c44 -18 118 -41 165 -50z"/>
<path d="M1300 2314 c47 -7 99 -12 115 -12 17 0 -8 6 -55 14 -47 7 -98 12
-115 12 -16 0 8 -6 55 -14z"/>
<path d="M836 2230 c-32 -27 -66 -56 -75 -66 -9 -9 19 11 62 45 65 53 87 73
75 70 -2 0 -30 -22 -62 -49z"/>
<path d="M953 582 c-2 -37 -2 -37 9 -9 6 16 6 33 2 37 -5 5 -10 -7 -11 -28z"/>
<path d="M1653 582 c-2 -37 -2 -37 9 -9 6 16 6 33 2 37 -5 5 -10 -7 -11 -28z"/>
<path d="M2073 582 c-2 -37 -2 -37 9 -9 6 16 6 33 2 37 -5 5 -10 -7 -11 -28z"/>
<path d="M2633 586 c-8 -25 -8 -36 1 -39 7 -3 12 10 13 34 3 48 -1 49 -14 5z"/>
<path d="M2954 577 l-2 -42 11 33 c6 20 6 36 1 42 -5 5 -10 -8 -10 -33z"/>
<path d="M560 580 c-6 -12 -8 -29 -4 -38 5 -13 9 -8 15 18 9 42 5 50 -11 20z"/>
<path d="M605 570 c-4 -17 -5 -34 -2 -36 3 -3 8 9 12 26 4 17 5 34 2 36 -3 3
-8 -9 -12 -26z"/>
<path d="M1043 560 c0 -25 2 -35 4 -22 2 12 2 32 0 45 -2 12 -4 2 -4 -23z"/>
<path d="M1756 585 c4 -8 0 -23 -7 -33 -13 -15 -12 -16 4 -3 19 15 22 36 7 46
-6 3 -7 -1 -4 -10z"/>
<path d="M2176 564 c1 -20 5 -38 8 -41 3 -3 4 11 3 30 -2 20 -5 39 -8 42 -4 3
-5 -11 -3 -31z"/>
<path d="M2739 598 c-5 -24 -4 -78 3 -78 4 0 8 18 8 40 0 22 -2 40 -5 40 -3 0
-5 -1 -6 -2z"/>
<path d="M3030 590 c0 -6 7 -10 15 -10 8 0 15 2 15 4 0 2 -7 6 -15 10 -8 3
-15 1 -15 -4z"/>
<path d="M3571 552 c-11 -43 -11 -56 -1 -65 10 -9 11 -9 6 1 -5 7 -3 26 4 42
6 15 10 39 8 52 -3 16 -7 8 -17 -30z"/>
<path d="M3064 534 c-1 -13 2 -21 7 -18 11 6 12 31 2 37 -5 3 -9 -6 -9 -19z"/>
<path d="M3610 535 c0 -17 -5 -36 -12 -43 -7 -7 -9 -12 -5 -12 3 0 14 11 23
24 12 19 13 29 5 43 -9 15 -10 14 -11 -12z"/>
<path d="M1733 523 c9 -2 23 -2 30 0 6 3 -1 5 -18 5 -16 0 -22 -2 -12 -5z"/>
</g>
</svg>
